<?xml version="1.0" encoding="UTF-8"?>
<!DOCTYPE svg PUBLIC "-//W3C//DTD SVG 1.1//EN" "http://www.w3.org/Graphics/SVG/1.1/DTD/svg11.dtd">
<!-- Creator: CorelDRAW 2020 (64-Bit Evaluation Version) -->
<svg xmlns="http://www.w3.org/2000/svg" xml:space="preserve" width="131.598mm" height="50.9533mm" version="1.1" style="shape-rendering:geometricPrecision; text-rendering:geometricPrecision; image-rendering:optimizeQuality; fill-rule:evenodd; clip-rule:evenodd"
viewBox="0 0 14227.85 5508.85"
 xmlns:xlink="http://www.w3.org/1999/xlink"
 xmlns:xodm="http://www.corel.com/coreldraw/odm/2003">
 <defs>
  <style type="text/css">
   <![CDATA[
    .str0 {stroke:#2B2A29;stroke-width:108.12;stroke-miterlimit:22.9256}
    .fil0 {fill:none}
   ]]>
  </style>
 </defs>
 <g id="Layer_x0020_1">
  <metadata id="CorelCorpID_0Corel-Layer"/>
  <g>
   <polygon class="fil0 str0" points="54.06,54.06 14173.79,54.06 14173.79,5454.79 54.06,5454.79 "/>
  </g>
  <g>
   <path class="fil0 str0" d="M2240.16 1690.29c-587.71,0 -1064.13,476.42 -1064.13,1064.13 0,587.71 476.42,1064.13 1064.13,1064.13 587.71,0 1064.13,-476.42 1064.13,-1064.13 0,-587.71 -476.42,-1064.13 -1064.13,-1064.13z"/>
  </g>
  <g>
   <path class="fil0 str0" d="M5492.29 1702.38c-587.71,0 -1064.13,476.42 -1064.13,1064.13 0,587.71 476.42,1064.13 1064.13,1064.13 587.71,0 1064.13,-476.42 1064.13,-1064.13 0,-587.71 -476.42,-1064.13 -1064.13,-1064.13z"/>
  </g>
  <g>
   <path class="fil0 str0" d="M11987.69 1700.56c-587.71,0 -1064.13,476.42 -1064.13,1064.13 0,587.71 476.42,1064.13 1064.13,1064.13 587.71,0 1064.13,-476.42 1064.13,-1064.13 0,-587.71 -476.42,-1064.13 -1064.13,-1064.13z"/>
  </g>
  <g>
   <path class="fil0 str0" d="M8729.8 1688.5c-587.71,0 -1064.13,476.42 -1064.13,1064.13 0,587.71 476.42,1064.13 1064.13,1064.13 587.71,0 1064.13,-476.42 1064.13,-1064.13 0,-587.71 -476.42,-1064.13 -1064.13,-1064.13z"/>
  </g>
 </g>
</svg>
