<?xml version="1.0" encoding="UTF-8"?>
<!DOCTYPE svg PUBLIC "-//W3C//DTD SVG 1.1//EN" "http://www.w3.org/Graphics/SVG/1.1/DTD/svg11.dtd">
<!-- Creator: CorelDRAW 2020 (64-Bit Evaluation Version) -->
<svg xmlns="http://www.w3.org/2000/svg" xml:space="preserve" width="191.474mm" height="85.8588mm" version="1.1" style="shape-rendering:geometricPrecision; text-rendering:geometricPrecision; image-rendering:optimizeQuality; fill-rule:evenodd; clip-rule:evenodd"
viewBox="0 0 19238.11 8626.56"
 xmlns:xlink="http://www.w3.org/1999/xlink"
 xmlns:xodm="http://www.corel.com/coreldraw/odm/2003">
 <defs>
  <style type="text/css">
   <![CDATA[
    .str2 {stroke:#2B2A29;stroke-width:50.24;stroke-miterlimit:22.9256}
    .str0 {stroke:#2B2A29;stroke-width:150.71;stroke-miterlimit:22.9256}
    .str1 {stroke:#E42C24;stroke-width:20.09;stroke-miterlimit:22.9256}
    .str3 {stroke:#2B2A29;stroke-width:60.27;stroke-miterlimit:22.9256}
    .str4 {stroke:#2B2A29;stroke-width:50.24;stroke-miterlimit:22.9256}
    .fil0 {fill:none}
   ]]>
  </style>
 </defs>
 <g id="Layer_x0020_1">
  <metadata id="CorelCorpID_0Corel-Layer"/>
  <polyline class="fil0 str0" points="9619.3,8551.03 3589.65,8551.03 3589.65,2174.33 38.48,64.79 "/>
  <polyline class="fil0 str0" points="9618.8,8551.2 15648.46,8551.2 15648.46,2174.5 19199.63,64.97 "/>
  <g id="_2475896801552">
   <path class="fil0 str1" d="M14231.38 5119.39c-1.44,-3.28 -2.81,-5.71 -4.13,-7.41"/>
   <path class="fil0 str1" d="M14298.64 5258.28c6.66,-1.84 12.94,-7.58 15.64,-16.45 3,-9.84 -1.39,-102.68 -2.28,-117.06 -0.51,-8.29 -8.45,-28.6 -16.19,-28.39"/>
   <path class="fil0 str1" d="M14234.77 5263.09c29.36,-6.88 13.16,-81.12 13.6,-110.41 0.38,-25.2 2.66,-45.76 11.24,-47.24 1.04,-0.18 2.04,-0.37 2.96,-0.55"/>
   <path class="fil0 str2" d="M4779.72 5988.56c-70.9,-272.78 -11.79,-455.39 119.34,-1097.4 327.25,-1602.17 466.79,-1409.83 1038.43,-1271.15 556.55,135.02 880.35,134.49 1507.65,170.91 627.29,36.42 1163.16,40.89 1843.64,36.93 680.48,-3.97 1505.55,-16.38 2132.87,-26.75 627.32,-10.36 1171.71,-108 1541.69,-50.43 369.98,57.57 565.57,270.35 727.09,470.31 161.53,199.95 185.52,302.4 308.08,621.07 122.56,318.67 269.16,400.91 464.59,114.01 195.43,-286.9 180.31,-130.65 291.26,-213.77 110.94,-83.11 292.72,-324.38 319.22,-216.64 26.48,107.74 20.28,229.18 -155.32,279.64 -175.6,50.46 474.43,85.47 212.53,194.59 -261.91,109.11 -239.85,444.6 -67.15,230.72 172.7,-213.89 31.93,625.96 -127.7,436.94 -159.64,-189.03 -123.4,-287.74 -246.59,-245.76 -123.19,41.98 -423.47,-416 -586.87,-35.3 -163.41,380.7 -250.98,131.73 -314.86,344.35 -63.88,212.62 -251.51,487.41 -221.5,812.22 30,324.81 -157.78,580.9 -799.83,663.13 -642.05,82.23 -1050.56,178.18 -1692.76,169.4 -642.19,-8.77 -1305.63,-64.35 -2122.19,-79.58 -816.57,-15.24 -1786.25,9.88 -2487.98,-35.08 -701.72,-44.96 -1275.82,-32.38 -1499,-281.28 -223.17,-248.89 -113.73,-718.32 -184.63,-991.08z"/>
   <g>
    <polygon class="fil0 str3" points="5244.89,3950.48 13117.12,3950.48 13117.12,6961.58 5244.89,6961.58 "/>
   </g>
   <g>
    <path class="fil0 str3" d="M6463.71 4862.73c-327.67,0 -593.29,265.62 -593.29,593.3 0,327.67 265.62,593.29 593.29,593.29 327.67,0 593.29,-265.62 593.29,-593.29 0,-327.68 -265.62,-593.3 -593.29,-593.3z"/>
   </g>
   <g>
    <path class="fil0 str3" d="M8276.89 4869.47c-327.67,0 -593.29,265.62 -593.29,593.29 0,327.67 265.62,593.29 593.29,593.29 327.67,0 593.29,-265.62 593.29,-593.29 0,-327.67 -265.62,-593.29 -593.29,-593.29z"/>
   </g>
   <g>
    <path class="fil0 str3" d="M11898.3 4868.46c-327.67,0 -593.29,265.62 -593.29,593.29 0,327.68 265.62,593.3 593.29,593.3 327.68,0 593.29,-265.62 593.29,-593.3 0,-327.67 -265.61,-593.29 -593.29,-593.29z"/>
   </g>
   <g>
    <path class="fil0 str3" d="M10081.91 4861.74c-327.67,0 -593.29,265.62 -593.29,593.29 0,327.67 265.62,593.29 593.29,593.29 327.67,0 593.29,-265.62 593.29,-593.29 0,-327.67 -265.62,-593.29 -593.29,-593.29z"/>
   </g>
   <path class="fil0 str1" d="M14227.25 5111.98c-13.3,-16.88 -19.8,36.2 -22.29,53.76 -3.46,24.55 -21.57,88.94 19.38,97.24 0.64,0.13 1.27,0.24 1.88,0.33"/>
   <path class="fil0 str1" d="M14226.22 5263.31c3.21,0.46 6.04,0.36 8.55,-0.22"/>
   <path class="fil0 str1" d="M14262.59 5104.88c7.4,-1.45 11.23,-1.7 13.99,18.33 1.77,12.91 0.56,41.17 1.49,63.64 0.64,15.71 -1.59,50.75 -0.79,55.27 2.43,13.94 12.26,18.68 21.37,16.16"/>
   <path class="fil0 str1" d="M14295.81 5096.37c-3.59,0.1 -7.13,4.6 -9.87,16.77"/>
  </g>
  <ellipse class="fil0 str4" cx="15186.78" cy="6601.65" rx="510.36" ry="175.43"/>
  <ellipse class="fil0 str4" transform="matrix(0.545335 0.250075 -0.250075 0.545335 15059.2 8180.57)" rx="850.68" ry="292.42"/>
  <ellipse class="fil0 str4" cx="14149.37" cy="8210.29" rx="510.36" ry="175.43"/>
  <ellipse class="fil0 str4" cx="12826.95" cy="8230.62" rx="510.36" ry="175.43"/>
  <ellipse class="fil0 str4" cx="11359.12" cy="8164.61" rx="510.36" ry="175.43"/>
  <ellipse class="fil0 str4" cx="9062.52" cy="8260.3" rx="510.36" ry="175.43"/>
  <ellipse class="fil0 str4" transform="matrix(0.525961 -0.288605 0.288605 0.525961 7984.97 8046.49)" rx="850.68" ry="292.42"/>
  <ellipse class="fil0 str4" transform="matrix(0.576234 -0.166978 0.166978 0.576234 13530.3 7906.54)" rx="850.68" ry="292.42"/>
  <ellipse class="fil0 str4" transform="matrix(0.565215 0.201146 -0.201146 0.565215 11972.1 7809.05)" rx="850.68" ry="292.42"/>
  <ellipse class="fil0 str4" cx="10753.11" cy="7817.79" rx="510.36" ry="175.43"/>
  <ellipse class="fil0 str4" transform="matrix(0.563208 0.206699 -0.206699 0.563208 10359.3 8246.54)" rx="850.68" ry="292.42"/>
  <ellipse class="fil0 str4" transform="matrix(0.583109 0.141108 -0.141108 0.583109 8936.64 7821.72)" rx="850.68" ry="292.42"/>
  <ellipse class="fil0 str4" cx="6949.33" cy="8186.53" rx="510.36" ry="175.43"/>
  <ellipse class="fil0 str4" transform="matrix(0.579013 -0.15707 0.15707 0.579013 6602.02 7842.15)" rx="850.68" ry="292.42"/>
  <ellipse class="fil0 str4" cx="5681.41" cy="8212.46" rx="510.36" ry="175.43"/>
  <ellipse class="fil0 str4" cx="5482.31" cy="7782.62" rx="510.36" ry="175.43"/>
  <ellipse class="fil0 str4" cx="4203.11" cy="8149.13" rx="510.36" ry="175.43"/>
  <ellipse class="fil0 str4" transform="matrix(0.58235 0.14421 -0.14421 0.58235 4427.3 7723.2)" rx="850.68" ry="292.42"/>
  <ellipse class="fil0 str4" transform="matrix(0.450464 -0.396244 0.396244 0.450464 4034.53 7035.81)" rx="850.68" ry="292.42"/>
  <ellipse class="fil0 str4" transform="matrix(0.516009 0.306042 -0.306042 0.516009 4876.75 7239.79)" rx="850.68" ry="292.42"/>
  <ellipse class="fil0 str4" transform="matrix(0.55692 0.223086 -0.223086 0.55692 4172.83 6247.55)" rx="850.68" ry="292.42"/>
  <ellipse class="fil0 str4" transform="matrix(0.580157 -0.152791 0.152791 0.580157 4190.97 5613.02)" rx="850.68" ry="292.42"/>
  <ellipse class="fil0 str4" transform="matrix(0.541912 0.257408 -0.257408 0.541912 4195.64 5002.07)" rx="850.68" ry="292.42"/>
  <ellipse class="fil0 str4" cx="4382.35" cy="4512.57" rx="510.36" ry="175.43"/>
  <ellipse class="fil0 str4" transform="matrix(0.398391 -0.448567 0.448567 0.398391 4851.77 3876.53)" rx="850.68" ry="292.42"/>
  <ellipse class="fil0 str4" cx="6383.15" cy="3380.03" rx="510.36" ry="175.43"/>
  <ellipse class="fil0 str4" transform="matrix(0.570512 -0.185591 0.185591 0.570512 7392.42 3481.07)" rx="850.68" ry="292.42"/>
  <ellipse class="fil0 str4" cx="8424.57" cy="3603.31" rx="510.36" ry="175.43"/>
  <ellipse class="fil0 str4" cx="10294.56" cy="3563.08" rx="510.36" ry="175.43"/>
  <ellipse class="fil0 str4" transform="matrix(0.540134 0.261118 -0.261118 0.540134 11133.6 3460.98)" rx="850.68" ry="292.42"/>
  <ellipse class="fil0 str4" cx="12197.17" cy="3444.01" rx="510.36" ry="175.43"/>
  <ellipse class="fil0 str4" transform="matrix(0.547268 -0.245816 0.245816 0.547268 13152.1 3435.95)" rx="850.68" ry="292.42"/>
  <ellipse class="fil0 str4" cx="11463.53" cy="3093.14" rx="510.36" ry="175.43"/>
  <ellipse class="fil0 str4" cx="9955.64" cy="3156.75" rx="510.36" ry="175.43"/>
  <ellipse class="fil0 str4" transform="matrix(0.551162 0.236955 -0.236955 0.551162 9226.38 3428.3)" rx="850.68" ry="292.42"/>
  <ellipse class="fil0 str4" transform="matrix(0.581993 -0.145644 0.145644 0.581993 8485.63 3020.48)" rx="850.68" ry="292.42"/>
  <ellipse class="fil0 str4" cx="7037.04" cy="3061.06" rx="510.36" ry="175.43"/>
  <ellipse class="fil0 str4" transform="matrix(0.441607 -0.406092 0.406092 0.441607 4134.39 3922.28)" rx="850.68" ry="292.42"/>
  <ellipse class="fil0 str4" transform="matrix(0.59994 0.204722 -0.204722 0.530081 5244.91 3192.88)" rx="850.68" ry="292.42"/>
  <ellipse class="fil0 str4" cx="4341.72" cy="3252.44" rx="510.36" ry="175.43"/>
  <ellipse class="fil0 str4" transform="matrix(0.541912 0.257408 -0.257408 0.541912 14101.9 3535.95)" rx="850.68" ry="292.42"/>
  <ellipse class="fil0 str4" cx="15103.05" cy="3794.65" rx="510.36" ry="175.43"/>
  <ellipse class="fil0 str4" cx="12580.05" cy="3005.83" rx="510.36" ry="175.43"/>
  <ellipse class="fil0 str4" transform="matrix(0.529269 0.282492 -0.282492 0.529269 13835.1 3938.18)" rx="850.68" ry="292.42"/>
  <ellipse class="fil0 str4" transform="matrix(0.222928 -0.556983 0.556983 0.222928 14413.9 4491.83)" rx="850.68" ry="292.42"/>
  <ellipse class="fil0 str4" transform="matrix(0.508798 0.317887 -0.317887 0.508798 15142.2 4290)" rx="850.68" ry="292.42"/>
  <ellipse class="fil0 str4" cx="14150.12" cy="6904.67" rx="510.36" ry="175.43"/>
  <ellipse class="fil0 str4" transform="matrix(0.573703 0.175477 -0.175477 0.573703 13841 7314.88)" rx="850.68" ry="292.42"/>
  <ellipse class="fil0 str4" transform="matrix(0.528908 0.283167 -0.283167 0.528908 12605.3 7635.42)" rx="850.68" ry="292.42"/>
  <ellipse class="fil0 str4" transform="matrix(-0.00659995 0.599903 -0.599903 -0.00659995 15415 5372.74)" rx="850.68" ry="292.42"/>
  <ellipse class="fil0 str4" transform="matrix(0.538852 -0.263755 0.263755 0.538852 14908.4 7160.03)" rx="850.68" ry="292.42"/>
  <ellipse class="fil0 str4" cx="14733" cy="7542.81" rx="510.36" ry="175.43"/>
  <ellipse class="fil0 str4" transform="matrix(0.57241 -0.17965 0.17965 0.57241 14376.8 6408.84)" rx="850.68" ry="292.42"/>
  <ellipse class="fil0 str4" transform="matrix(0.558287 0.219645 -0.219645 0.558287 15046.5 6089.89)" rx="850.68" ry="292.42"/>
  <ellipse class="fil0 str4" transform="matrix(0.481162 -0.358344 0.358344 0.481162 14170.6 5925.29)" rx="850.68" ry="292.42"/>
  <ellipse class="fil0 str4" cx="15036.02" cy="3364.27" rx="510.36" ry="175.43"/>
  <ellipse class="fil0 str4" transform="matrix(0.583152 -0.14093 0.14093 0.583152 14455.4 3139.91)" rx="850.68" ry="292.42"/>
  <ellipse class="fil0 str4" transform="matrix(0.59792 -0.0491923 0.0491923 0.59792 13642.5 2959.57)" rx="850.68" ry="292.42"/>
  <ellipse class="fil0 str4" transform="matrix(0.584499 -0.135235 0.135235 0.584499 7646.37 7711.84)" rx="850.68" ry="292.42"/>
  <ellipse class="fil0 str4" transform="matrix(0.492221 -0.342996 0.342996 0.492221 9933.79 7720.22)" rx="850.68" ry="292.42"/>
 </g>
</svg>
