<?xml version="1.0" encoding="UTF-8"?>
<!DOCTYPE svg PUBLIC "-//W3C//DTD SVG 1.1//EN" "http://www.w3.org/Graphics/SVG/1.1/DTD/svg11.dtd">
<!-- Creator: CorelDRAW 2020 (64-Bit Evaluation Version) -->
<svg xmlns="http://www.w3.org/2000/svg" xml:space="preserve" width="183.716mm" height="144.436mm" version="1.1" style="shape-rendering:geometricPrecision; text-rendering:geometricPrecision; image-rendering:optimizeQuality; fill-rule:evenodd; clip-rule:evenodd"
viewBox="0 0 18462.31 14514.98"
 xmlns:xlink="http://www.w3.org/1999/xlink"
 xmlns:xodm="http://www.corel.com/coreldraw/odm/2003">
 <defs>
  <style type="text/css">
   <![CDATA[
    .str1 {stroke:#2B2A29;stroke-width:50.25;stroke-miterlimit:22.9256}
    .str3 {stroke:#2B2A29;stroke-width:150.74;stroke-miterlimit:22.9256}
    .str0 {stroke:#E42C24;stroke-width:20.1;stroke-miterlimit:22.9256}
    .str2 {stroke:#2B2A29;stroke-width:57.83;stroke-miterlimit:22.9256}
    .fil0 {fill:none}
    .fil1 {fill:#2B2A29;fill-rule:nonzero}
   ]]>
  </style>
 </defs>
 <g id="Layer_x0020_1">
  <metadata id="CorelCorpID_0Corel-Layer"/>
  <g id="_2475895281680">
   <path class="fil0 str0" d="M13663.28 1549.5c-1.39,-3.15 -2.7,-5.48 -3.97,-7.11"/>
   <path class="fil0 str0" d="M13727.81 1682.77c6.4,-1.77 12.42,-7.28 15.01,-15.79 2.88,-9.44 -1.34,-98.52 -2.18,-112.31 -0.49,-7.96 -8.11,-27.45 -15.54,-27.25"/>
   <path class="fil0 str0" d="M13666.54 1687.38c28.17,-6.6 12.62,-77.83 13.05,-105.94 0.36,-24.18 2.55,-43.9 10.78,-45.32 1,-0.17 1.96,-0.36 2.84,-0.54"/>
   <path class="fil0 str1" d="M4594.32 2383.48c-68.03,-261.73 -11.32,-436.96 114.51,-1052.97 313.99,-1537.29 447.88,-1352.75 996.37,-1219.68 534.02,129.56 844.71,129.05 1446.61,163.99 601.9,34.94 1116.07,39.24 1769,35.43 652.92,-3.81 1444.59,-15.72 2046.51,-25.66 601.92,-9.94 1124.26,-103.63 1479.27,-48.39 354.99,55.24 542.67,259.4 697.65,451.27 154.99,191.86 178.01,290.16 295.6,595.92 117.6,305.77 258.27,384.68 445.79,109.4 187.51,-275.29 173,-125.37 279.46,-205.12 106.45,-79.75 280.87,-311.24 306.29,-207.87 25.42,103.38 19.46,219.9 -149.02,268.32 -168.49,48.41 455.21,82.01 203.92,186.71 -251.29,104.69 -230.14,426.6 -64.43,221.38 165.7,-205.23 30.63,600.61 -122.53,419.24 -153.17,-181.37 -118.41,-276.08 -236.61,-235.8 -118.2,40.28 -406.32,-399.15 -563.11,-33.88 -156.78,365.29 -240.81,126.4 -302.11,330.42 -61.29,204 -241.32,467.67 -212.52,779.33 28.78,311.65 -151.4,557.38 -767.46,636.28 -616.05,78.9 -1008.01,170.96 -1624.21,162.54 -616.19,-8.42 -1252.77,-61.74 -2036.27,-76.36 -783.5,-14.62 -1713.93,9.48 -2387.24,-33.66 -673.31,-43.13 -1224.17,-31.07 -1438.31,-269.89 -214.13,-238.82 -109.12,-689.23 -177.15,-950.95z"/>
   <g>
    <polygon class="fil0 str2" points="5040.65,427.92 12594.14,427.92 12594.14,3317.1 5040.65,3317.1 "/>
   </g>
   <g>
    <path class="fil0 str2" d="M6210.13 1303.24c-314.41,0 -569.27,254.86 -569.27,569.27 0,314.39 254.86,569.26 569.27,569.26 314.39,0 569.26,-254.86 569.26,-569.26 0,-314.41 -254.86,-569.27 -569.26,-569.27z"/>
   </g>
   <g>
    <path class="fil0 str2" d="M7949.89 1309.71c-314.41,0 -569.27,254.87 -569.27,569.27 0,314.39 254.86,569.27 569.27,569.27 314.39,0 569.27,-254.87 569.27,-569.27 0,-314.39 -254.87,-569.27 -569.27,-569.27z"/>
   </g>
   <g>
    <path class="fil0 str2" d="M11424.66 1308.73c-314.39,0 -569.26,254.87 -569.26,569.27 0,314.41 254.86,569.27 569.26,569.27 314.41,0 569.27,-254.86 569.27,-569.27 0,-314.39 -254.86,-569.27 -569.27,-569.27z"/>
   </g>
   <g>
    <path class="fil0 str2" d="M9681.83 1302.28c-314.41,0 -569.27,254.87 -569.27,569.27 0,314.39 254.86,569.27 569.27,569.27 314.39,0 569.26,-254.87 569.26,-569.27 0,-314.39 -254.86,-569.27 -569.26,-569.27z"/>
   </g>
   <path class="fil0 str0" d="M13659.31 1542.39c-12.76,-16.2 -19,34.73 -21.38,51.59 -3.32,23.55 -20.7,85.34 18.59,93.3 0.61,0.12 1.22,0.23 1.81,0.31"/>
   <path class="fil0 str0" d="M13658.34 1687.59c3.08,0.44 5.79,0.35 8.2,-0.21"/>
   <path class="fil0 str0" d="M13693.22 1535.58c7.11,-1.38 10.78,-1.62 13.43,17.6 1.7,12.38 0.53,39.5 1.42,61.06 0.62,15.07 -1.52,48.69 -0.75,53.03 2.33,13.38 11.76,17.93 20.5,15.51"/>
   <path class="fil0 str0" d="M13725.11 1527.42c-3.45,0.1 -6.84,4.42 -9.47,16.09"/>
  </g>
  <polyline class="fil0 str3" points="9231.39,14439.44 3445.87,14439.44 3445.87,8320.93 38.49,6296.8 "/>
  <polyline class="fil0 str3" points="9230.91,14439.61 15016.44,14439.61 15016.44,8321.1 18423.82,6296.96 "/>
  <g>
   <path class="fil1" d="M9251.05 7140.34l-771.31 -1536.79 1538.05 -2.53 -766.74 1539.32zm122.07 -2150.26l1.15 692.39 -251.23 0.42 -1.15 -692.39 251.23 -0.42z"/>
  </g>
 </g>
</svg>
