<?xml version="1.0" encoding="UTF-8"?>
<!DOCTYPE svg PUBLIC "-//W3C//DTD SVG 1.1//EN" "http://www.w3.org/Graphics/SVG/1.1/DTD/svg11.dtd">
<!-- Creator: CorelDRAW 2020 (64-Bit Evaluation Version) -->
<svg xmlns="http://www.w3.org/2000/svg" xml:space="preserve" width="139.289mm" height="87.0778mm" version="1.1" style="shape-rendering:geometricPrecision; text-rendering:geometricPrecision; image-rendering:optimizeQuality; fill-rule:evenodd; clip-rule:evenodd"
viewBox="0 0 14390.81 8996.55"
 xmlns:xlink="http://www.w3.org/1999/xlink"
 xmlns:xodm="http://www.corel.com/coreldraw/odm/2003">
 <defs>
  <style type="text/css">
   <![CDATA[
    .str0 {stroke:#2B2A29;stroke-width:103.32;stroke-miterlimit:22.9256}
    .str1 {stroke:#2B2A29;stroke-width:10.33;stroke-miterlimit:22.9256}
    .str2 {stroke:#2B2A29;stroke-width:7.87;stroke-miterlimit:22.9256}
    .fil0 {fill:none}
    .fil1 {fill:none;fill-rule:nonzero}
    .fil2 {fill:#E63C24}
    .fil3 {fill:#FEFDFB;fill-rule:nonzero}
   ]]>
  </style>
     <clipPath id="id0">
      <rect x="4736.63" y="7529.03" width="1213.1" height="1131.11"/>
     </clipPath>
 </defs>
 <g id="Layer_x0020_1">
  <metadata id="CorelCorpID_0Corel-Layer"/>
  <g id="_2475932892256">
   <rect class="fil0 str0" transform="matrix(2.64845E-14 1 -1 2.64845E-14 14339.2 51.6581)" width="8893.24" height="14287.49"/>
   <line class="fil0 str0" x1="14339.15" y1="4498.28" x2="51.66" y2= "4498.28" />
   <g>
    <line class="fil1 str1" x1="14339.15" y1="5300.07" x2="51.66" y2= "5300.07" />
    <polyline class="fil1 str1" points="51.66,5300.07 51.66,3751.04 14339.15,3751.04 14339.15,5300.07 "/>
   </g>
   <g>
    <path class="fil2" d="M11883.76 8722.02l0 -2095.74 1901.6 0 0 2095.74 -1901.6 0zm517.99 -347.67l897.52 0 -897.52 0zm450.95 0l0 -734.65 0 734.65zm520.56 -1206.48c-30.99,380.43 -92.08,469.51 -522.75,469.49 -430.07,-0.01 -491.63,-89.45 -522.85,-469.49l1045.6 0z"/>
    <path id="1" class="fil3" d="M11888.3 6626.28l0 2095.74 -9.09 0 0 -2095.74 4.55 -5.17 4.55 5.17zm1897.05 5.17l-1901.6 0 0 -10.33 1901.6 0 4.55 5.17 -4.55 5.17zm-4.55 2090.57l0 -2095.74 9.09 0 0 2095.74 -4.55 5.17 -4.55 -5.17zm-1897.05 -5.17l1901.6 0 0 10.33 -1901.6 0 -4.55 -5.17 4.55 -5.17zm1415.5 -337.34l-897.52 0 0 -10.33 897.52 0 0 10.33zm-442.02 -739.82l0 734.65 -9.09 0 0 -734.65 9.09 0zm-6.74 2.83l0 -10.33 0 0 39.25 -0.27 37.13 -0.82 35.08 -1.42 33.08 -2.06 31.16 -2.71 29.28 -3.42 27.47 -4.15 25.73 -4.92 24.02 -5.73 22.39 -6.57 20.83 -7.44 19.33 -8.34 17.87 -9.27 16.52 -10.25 15.2 -11.23 13.99 -12.28 12.82 -13.36 11.75 -14.48 10.72 -15.66 9.78 -16.89 8.87 -18.16 8.07 -19.49 7.29 -20.84 6.58 -22.24 5.91 -23.69 5.33 -25.16 4.79 -26.68 4.31 -28.22 3.88 -29.81 3.53 -31.43 3.23 -33.07 3.01 -34.76 9.05 0.95 -3.01 34.88 -3.25 33.22 -3.55 31.61 -3.93 30.03 -4.35 28.5 -4.84 26.99 -5.41 25.55 -6.03 24.12 -6.73 22.74 -7.48 21.4 -8.32 20.08 -9.21 18.8 -10.16 17.55 -11.18 16.32 -12.26 15.13 -13.4 13.96 -14.57 12.8 -15.82 11.69 -17.1 10.6 -18.45 9.58 -19.85 8.56 -21.3 7.6 -22.82 6.69 -24.41 5.82 -26.06 4.98 -27.76 4.22 -29.53 3.44 -31.37 2.73 -33.27 2.06 -35.24 1.44 -37.28 0.82 -39.35 0.27 0 0zm-527.38 -474.18l9.05 -0.95 3.03 34.72 3.25 33.03 3.55 31.4 3.92 29.79 4.33 28.21 4.81 26.66 5.36 25.16 5.94 23.67 6.61 22.24 7.31 20.84 8.08 19.49 8.92 18.16 9.79 16.89 10.74 15.66 11.76 14.5 12.84 13.37 14 12.28 15.21 11.26 16.53 10.25 17.87 9.28 19.33 8.36 20.83 7.44 22.38 6.58 24.02 5.74 25.71 4.94 27.44 4.15 29.26 3.43 31.13 2.73 33.05 2.06 35.03 1.43 37.09 0.83 39.19 0.27 0 10.33 -39.31 -0.27 -37.21 -0.83 -35.2 -1.45 -33.24 -2.06 -31.34 -2.75 -29.51 -3.45 -27.75 -4.22 -26.04 -5 -24.39 -5.83 -22.81 -6.71 -21.3 -7.62 -19.85 -8.59 -18.45 -9.57 -17.11 -10.62 -15.83 -11.7 -14.58 -12.8 -13.42 -13.97 -12.27 -15.14 -11.2 -16.32 -10.17 -17.55 -9.23 -18.8 -8.35 -20.08 -7.5 -21.4 -6.76 -22.74 -6.06 -24.1 -5.42 -25.53 -4.88 -26.99 -4.37 -28.47 -3.96 -30.01 -3.57 -31.58 -3.28 -33.2 -3.03 -34.85z"/>
   </g>
   <rect class="fil0 str1" transform="matrix(2.64845E-14 1 -0.6978 1.84809E-14 6044.78 5816.59)" width="2915.81" height="5740.51"/>
   <g id="_2475932825680">
    <g style="clip-path:url(#id0)">
     <image x="4736.63" y="7529.03" width="1213.1" height="1131.11" xlink:href="Packing6_Images\Packing6_ImgID1.png"/>
    </g>
   </g>
   <path class="fil0 str2" d="M5638.26 5907.62c-23.26,190.57 -67.37,379.97 -69.06,572.05 -0.74,85.08 115.67,286.25 132.81,436.3 -0.75,211.69 -13.43,226.37 -68.31,372.11"/>
   <path class="fil0 str2" d="M5262.38 5914.78c-23.26,190.57 -67.37,379.97 -69.06,572.05 -0.74,85.08 115.67,286.25 132.81,436.3 -0.75,211.69 -13.43,226.37 -68.31,372.11"/>
   <path class="fil0 str2" d="M4897.91 5905.68c-23.26,190.57 -67.37,379.97 -69.06,572.05 -0.74,85.08 115.67,286.25 132.81,436.3 -0.75,211.69 -13.43,226.37 -68.31,372.11"/>
   <path class="fil0 str2" d="M4515.21 5905.68c-23.26,190.57 -67.37,379.97 -69.06,572.05 -0.74,85.08 115.67,286.25 132.81,436.3 -0.75,211.69 -13.43,226.37 -68.31,372.11"/>
   <path class="fil0 str2" d="M4059.62 5869.23c-23.26,190.57 -67.37,379.97 -69.06,572.05 -0.74,85.08 115.67,286.25 132.81,436.3 -0.75,211.69 -13.43,226.37 -68.31,372.11"/>
   <path class="fil0 str2" d="M3686.02 5923.9c-23.26,190.57 -67.37,379.97 -69.06,572.05 -0.74,85.08 115.67,286.25 132.81,436.3 -0.75,211.69 -13.43,226.37 -68.31,372.11"/>
   <path class="fil0 str2" d="M3285.1 5907.62c-23.26,190.57 -67.37,379.97 -69.06,572.05 -0.74,85.08 115.67,286.25 132.81,436.3 -0.75,211.69 -13.43,226.37 -68.31,372.11"/>
   <path class="fil0 str2" d="M2893.29 5907.62c-23.26,190.57 -67.37,379.97 -69.06,572.05 -0.74,85.08 115.67,286.25 132.81,436.3 -0.75,211.69 -13.43,226.37 -68.31,372.11"/>
   <path class="fil0 str2" d="M2537.92 5907.62c-23.26,190.57 -67.37,379.97 -69.06,572.05 -0.74,85.08 115.67,286.25 132.81,436.3 -0.75,211.69 -13.43,226.37 -68.31,372.11"/>
   <path class="fil0 str2" d="M2237.23 5907.62c-23.26,190.57 -67.37,379.97 -69.06,572.05 -0.74,85.08 115.67,286.25 132.81,436.3 -0.75,211.69 -13.43,226.37 -68.31,372.11"/>
   <path class="fil0 str2" d="M2537.92 7299.8c-23.26,190.57 -67.37,379.97 -69.06,572.05 -0.74,85.08 115.67,286.25 132.81,436.3 -0.75,211.69 -13.43,226.37 -68.31,372.11"/>
   <path class="fil0 str2" d="M2884.18 7290.69c-23.26,190.57 -67.37,379.97 -69.06,572.05 -0.74,85.08 115.67,286.25 132.81,436.3 -0.75,211.69 -13.43,226.37 -68.31,372.11"/>
   <path class="fil0 str2" d="M4506.1 7290.69c-23.26,190.57 -67.37,379.97 -69.06,572.05 -0.74,85.08 115.67,286.25 132.81,436.3 -0.75,211.69 -13.43,226.37 -68.31,372.11"/>
   <path class="fil0 str2" d="M4050.5 7248.52c-23.26,190.57 -67.37,379.97 -69.06,572.05 -0.74,85.08 115.67,286.25 132.81,436.3 -0.75,211.69 -13.43,226.37 -68.31,372.11"/>
   <path class="fil0 str2" d="M3686.02 7290.69c-23.26,190.57 -67.37,379.97 -69.06,572.05 -0.74,85.08 115.67,286.25 132.81,436.3 -0.75,211.69 -13.43,226.37 -68.31,372.11"/>
   <path class="fil0 str2" d="M3285.1 7290.69c-23.26,190.57 -67.37,379.97 -69.06,572.05 -0.74,85.08 115.67,286.25 132.81,436.3 -0.75,211.69 -13.43,226.37 -68.31,372.11"/>
   <path class="fil0 str2" d="M2246.34 7290.69c-23.26,190.57 -67.37,379.97 -69.06,572.05 -0.74,85.08 115.67,286.25 132.81,436.3 -0.75,211.69 -13.43,226.37 -68.31,372.11"/>
  </g>
 </g>
</svg>
