<?xml version="1.0" encoding="UTF-8"?>
<!DOCTYPE svg PUBLIC "-//W3C//DTD SVG 1.1//EN" "http://www.w3.org/Graphics/SVG/1.1/DTD/svg11.dtd">
<!-- Creator: CorelDRAW 2020 (64-Bit Evaluation Version) -->
<svg xmlns="http://www.w3.org/2000/svg" xml:space="preserve" width="201.816mm" height="119.527mm" version="1.1" style="shape-rendering:geometricPrecision; text-rendering:geometricPrecision; image-rendering:optimizeQuality; fill-rule:evenodd; clip-rule:evenodd"
viewBox="0 0 20307.86 12027.44"
 xmlns:xlink="http://www.w3.org/1999/xlink"
 xmlns:xodm="http://www.corel.com/coreldraw/odm/2003">
 <defs>
  <style type="text/css">
   <![CDATA[
    .str2 {stroke:#2B2A29;stroke-width:50.31;stroke-miterlimit:22.9256}
    .str0 {stroke:#2B2A29;stroke-width:150.94;stroke-miterlimit:22.9256}
    .str1 {stroke:#E42C24;stroke-width:20.13;stroke-miterlimit:22.9256}
    .str3 {stroke:#2B2A29;stroke-width:100.63;stroke-miterlimit:22.9256}
    .str4 {stroke:#2B2A29;stroke-width:50.31;stroke-miterlimit:22.9256}
    .str5 {stroke:#2B2A29;stroke-width:20.13;stroke-miterlimit:22.9256}
    .fil0 {fill:none}
   ]]>
  </style>
 </defs>
 <g id="Layer_x0020_1">
  <metadata id="CorelCorpID_0Corel-Layer"/>
  <polyline class="fil0 str0" points="10141.09,11937.4 75.47,11937.4 75.47,2020.89 20263.21,2018.63 "/>
  <polyline class="fil0 str0" points="10136.03,11951.97 20201.65,11951.97 20188.53,2007.54 20188.1,1943.93 "/>
  <g id="_2475896834096">
   <path class="fil0 str1" d="M17835.84 6191.26c-2.4,-5.46 -4.7,-9.52 -6.9,-12.37"/>
   <path class="fil0 str1" d="M17948.11 6423.12c11.13,-3.08 21.6,-12.66 26.12,-27.47 5.01,-16.42 -2.32,-171.41 -3.8,-195.4 -0.86,-13.85 -14.11,-47.77 -27.03,-47.41"/>
   <path class="fil0 str1" d="M17841.5 6431.14c49.01,-11.49 21.97,-135.41 22.71,-184.32 0.63,-42.06 4.45,-76.37 18.77,-78.85 1.75,-0.3 3.4,-0.63 4.95,-0.94"/>
   <path class="fil0 str2" d="M2057.69 7642.21c-118.37,-455.35 -19.68,-760.21 199.23,-1831.96 546.3,-2674.58 779.23,-2353.49 1733.49,-2121.99 929.09,225.39 1469.62,224.52 2516.8,285.3 1047.18,60.79 1941.74,68.26 3077.7,61.64 1135.95,-6.62 2513.29,-27.34 3560.5,-44.64 1047.21,-17.3 1955.99,-180.29 2573.62,-84.18 617.63,96.11 944.13,451.32 1213.78,785.11 269.65,333.8 309.7,504.81 514.29,1036.79 204.59,531.98 449.32,669.26 775.57,190.31 326.25,-478.95 301,-218.1 486.21,-356.85 185.21,-138.75 488.66,-541.51 532.88,-361.66 44.22,179.85 33.85,382.58 -259.28,466.81 -293.13,84.23 791.98,142.69 354.79,324.84 -437.2,182.15 -400.39,742.19 -112.09,385.14 288.3,-357.05 53.3,1044.96 -213.19,729.4 -266.49,-315.55 -206,-480.33 -411.65,-410.25 -205.65,70.08 -706.91,-694.45 -979.69,-58.93 -272.78,635.52 -418.97,219.91 -525.62,574.85 -106.64,354.94 -419.84,813.66 -369.76,1355.88 50.08,542.22 -263.41,969.73 -1335.21,1106.99 -1071.8,137.26 -1753.75,297.44 -2825.81,282.79 -1072.04,-14.65 -2179.55,-107.43 -3542.68,-132.85 -1363.13,-25.44 -2981.89,16.49 -4153.31,-58.55 -1171.42,-75.05 -2129.8,-54.06 -2502.36,-469.55 -372.56,-415.49 -189.85,-1199.11 -308.22,-1654.47z"/>
   <g>
    <polygon class="fil0 str3" points="2834.22,4239.94 15975.75,4239.94 15975.75,9266.52 2834.22,9266.52 "/>
   </g>
   <g>
    <path class="fil0 str3" d="M4868.87 5762.81c-546.99,0 -990.41,443.42 -990.41,990.41 0,546.99 443.42,990.41 990.41,990.41 546.99,0 990.41,-443.42 990.41,-990.41 0,-546.99 -443.42,-990.41 -990.41,-990.41z"/>
   </g>
   <g>
    <path class="fil0 str3" d="M7895.69 5774.06c-546.99,0 -990.41,443.42 -990.41,990.41 0,546.99 443.42,990.41 990.41,990.41 546.99,0 990.41,-443.42 990.41,-990.41 0,-546.99 -443.42,-990.41 -990.41,-990.41z"/>
   </g>
   <g>
    <path class="fil0 str3" d="M13941.11 5772.37c-546.99,0 -990.41,443.42 -990.41,990.41 0,546.99 443.42,990.41 990.41,990.41 546.99,0 990.41,-443.42 990.41,-990.41 0,-546.99 -443.42,-990.41 -990.41,-990.41z"/>
   </g>
   <g>
    <path class="fil0 str3" d="M10908.92 5761.14c-546.99,0 -990.41,443.42 -990.41,990.41 0,546.99 443.42,990.41 990.41,990.41 546.99,0 990.41,-443.42 990.41,-990.41 0,-546.99 -443.42,-990.41 -990.41,-990.41z"/>
   </g>
   <path class="fil0 str1" d="M17828.93 6178.89c-22.21,-28.19 -33.06,60.43 -37.19,89.75 -5.78,40.97 -36.01,148.47 32.35,162.33 1.07,0.21 2.11,0.4 3.14,0.54"/>
   <path class="fil0 str1" d="M17827.23 6431.51c5.35,0.77 10.08,0.6 14.27,-0.37"/>
   <path class="fil0 str1" d="M17887.93 6167.04c12.37,-2.4 18.76,-2.83 23.35,30.6 2.96,21.54 0.94,68.73 2.48,106.23 1.08,26.23 -2.64,84.72 -1.32,92.27 4.06,23.26 20.47,31.18 35.67,26.98"/>
   <path class="fil0 str1" d="M17943.4 6152.83c-5.99,0.17 -11.9,7.7 -16.47,28"/>
  </g>
  <ellipse class="fil0 str4" cx="19430.74" cy="8665.67" rx="851.97" ry="292.86"/>
  <ellipse class="fil0 str4" transform="matrix(0.908983 0.416834 -0.416834 0.908983 19217.7 11301.4)" rx="851.97" ry="292.86"/>
  <ellipse class="fil0 str4" cx="17698.94" cy="11351.06" rx="851.97" ry="292.86"/>
  <ellipse class="fil0 str4" cx="15491.34" cy="11385.01" rx="851.97" ry="292.86"/>
  <ellipse class="fil0 str4" cx="13041.02" cy="11274.81" rx="851.97" ry="292.86"/>
  <ellipse class="fil0 str4" cx="9207.19" cy="11434.55" rx="851.97" ry="292.86"/>
  <ellipse class="fil0 str4" transform="matrix(0.876689 -0.481057 0.481057 0.876689 7408.37 11077.6)" rx="851.97" ry="292.86"/>
  <ellipse class="fil0 str4" transform="matrix(0.960487 -0.278325 0.278325 0.960487 16665.5 10844)" rx="851.97" ry="292.86"/>
  <ellipse class="fil0 str4" transform="matrix(0.94212 0.335277 -0.335277 0.94212 14064.3 10681.3)" rx="851.97" ry="292.86"/>
  <ellipse class="fil0 str4" cx="12029.37" cy="10695.84" rx="851.97" ry="292.86"/>
  <ellipse class="fil0 str4" transform="matrix(0.938774 0.344533 -0.344533 0.938774 11372 11411.6)" rx="851.97" ry="292.86"/>
  <ellipse class="fil0 str4" transform="matrix(0.971946 0.235204 -0.235204 0.971946 8997.05 10702.4)" rx="851.97" ry="292.86"/>
  <ellipse class="fil0 str4" cx="5679.54" cy="11311.4" rx="851.97" ry="292.86"/>
  <ellipse class="fil0 str4" transform="matrix(0.965119 -0.26181 0.26181 0.965119 5099.75 10736.5)" rx="851.97" ry="292.86"/>
  <ellipse class="fil0 str4" cx="3562.93" cy="11354.68" rx="851.97" ry="292.86"/>
  <ellipse class="fil0 str4" cx="3230.56" cy="10637.13" rx="851.97" ry="292.86"/>
  <ellipse class="fil0 str4" cx="1095.12" cy="11248.96" rx="851.97" ry="292.86"/>
  <ellipse class="fil0 str4" transform="matrix(0.97068 0.240375 -0.240375 0.97068 1469.37 10537.9)" rx="851.97" ry="292.86"/>
  <ellipse class="fil0 str4" transform="matrix(0.75085 -0.660473 0.660473 0.75085 813.708 9390.45)" rx="851.97" ry="292.86"/>
  <ellipse class="fil0 str4" transform="matrix(0.860102 0.510122 -0.510122 0.860102 2219.67 9730.95)" rx="851.97" ry="292.86"/>
  <ellipse class="fil0 str4" transform="matrix(0.928294 0.371847 -0.371847 0.928294 1044.58 8074.56)" rx="851.97" ry="292.86"/>
  <ellipse class="fil0 str4" transform="matrix(0.967026 -0.254677 0.254677 0.967026 1074.85 7015.31)" rx="851.97" ry="292.86"/>
  <ellipse class="fil0 str4" transform="matrix(0.903278 0.429056 -0.429056 0.903278 1082.65 5995.41)" rx="851.97" ry="292.86"/>
  <ellipse class="fil0 str4" cx="1394.34" cy="5178.26" rx="851.97" ry="292.86"/>
  <ellipse class="fil0 str4" transform="matrix(0.664051 -0.747687 0.747687 0.664051 2177.97 4116.49)" rx="851.97" ry="292.86"/>
  <ellipse class="fil0 str4" cx="4734.37" cy="3287.66" rx="851.97" ry="292.86"/>
  <ellipse class="fil0 str4" transform="matrix(0.950948 -0.30935 0.30935 0.950948 6419.21 3456.33)" rx="851.97" ry="292.86"/>
  <ellipse class="fil0 str4" cx="8142.23" cy="3660.38" rx="851.97" ry="292.86"/>
  <ellipse class="fil0 str4" cx="11263.89" cy="3593.24" rx="851.97" ry="292.86"/>
  <ellipse class="fil0 str4" transform="matrix(0.900315 0.43524 -0.43524 0.900315 12664.5 3422.8)" rx="851.97" ry="292.86"/>
  <ellipse class="fil0 str4" cx="14440.02" cy="3394.46" rx="851.97" ry="292.86"/>
  <ellipse class="fil0 str4" transform="matrix(0.912205 -0.409734 0.409734 0.912205 16034.1 3381.01)" rx="851.97" ry="292.86"/>
  <ellipse class="fil0 str4" cx="13215.32" cy="2808.74" rx="851.97" ry="292.86"/>
  <ellipse class="fil0 str4" cx="10698.12" cy="2914.92" rx="851.97" ry="292.86"/>
  <ellipse class="fil0 str4" transform="matrix(0.918696 0.394964 -0.394964 0.918696 9480.73 3368.24)" rx="851.97" ry="292.86"/>
  <ellipse class="fil0 str4" transform="matrix(0.970085 -0.242765 0.242765 0.970085 8244.16 2687.44)" rx="851.97" ry="292.86"/>
  <ellipse class="fil0 str4" cx="5825.95" cy="2755.18" rx="851.97" ry="292.86"/>
  <ellipse class="fil0 str4" transform="matrix(0.736085 -0.676889 0.676889 0.736085 980.405 4192.87)" rx="851.97" ry="292.86"/>
  <ellipse class="fil0 str4" transform="matrix(1 0.341238 -0.341238 0.883556 2834.25 2975.25)" rx="851.97" ry="292.86"/>
  <ellipse class="fil0 str4" cx="1326.52" cy="3074.66" rx="851.97" ry="292.86"/>
  <ellipse class="fil0 str4" transform="matrix(0.903278 0.429056 -0.429056 0.903278 17619.6 3547.95)" rx="851.97" ry="292.86"/>
  <ellipse class="fil0 str4" cx="19290.96" cy="3979.8" rx="851.97" ry="292.86"/>
  <ellipse class="fil0 str4" cx="15079.19" cy="2662.99" rx="851.97" ry="292.86"/>
  <ellipse class="fil0 str4" transform="matrix(0.882204 0.470868 -0.470868 0.882204 17174.4 4219.41)" rx="851.97" ry="292.86"/>
  <ellipse class="fil0 str4" transform="matrix(0.371585 -0.928399 0.928399 0.371585 18140.6 5143.65)" rx="851.97" ry="292.86"/>
  <ellipse class="fil0 str4" transform="matrix(0.848082 0.529865 -0.529865 0.848082 19356.3 4806.71)" rx="851.97" ry="292.86"/>
  <ellipse class="fil0 str4" cx="17700.18" cy="9171.53" rx="851.97" ry="292.86"/>
  <ellipse class="fil0 str4" transform="matrix(0.956268 0.292491 -0.292491 0.956268 17184.2 9856.3)" rx="851.97" ry="292.86"/>
  <ellipse class="fil0 str4" transform="matrix(0.881602 0.471993 -0.471993 0.881602 15121.4 10391.4)" rx="851.97" ry="292.86"/>
  <ellipse class="fil0 str4" transform="matrix(-0.011001 0.999939 -0.999939 -0.011001 19811.7 6614.19)" rx="851.97" ry="292.86"/>
  <ellipse class="fil0 str4" transform="matrix(0.898176 -0.439635 0.439635 0.898176 18966.1 9597.82)" rx="851.97" ry="292.86"/>
  <ellipse class="fil0 str4" cx="18673.21" cy="10236.8" rx="851.97" ry="292.86"/>
  <ellipse class="fil0 str4" transform="matrix(0.954113 -0.299446 0.299446 0.954113 18078.5 8343.81)" rx="851.97" ry="292.86"/>
  <ellipse class="fil0 str4" transform="matrix(0.930571 0.366111 -0.366111 0.930571 19196.5 7811.37)" rx="851.97" ry="292.86"/>
  <ellipse class="fil0 str4" transform="matrix(0.802017 -0.597301 0.597301 0.802017 17734.4 7536.59)" rx="851.97" ry="292.86"/>
  <ellipse class="fil0 str4" cx="19179.07" cy="3261.34" rx="851.97" ry="292.86"/>
  <ellipse class="fil0 str4" transform="matrix(0.972018 -0.234908 0.234908 0.972018 18209.8 2886.81)" rx="851.97" ry="292.86"/>
  <ellipse class="fil0 str4" transform="matrix(0.996633 -0.0819954 0.0819954 0.996633 16852.8 2585.76)" rx="851.97" ry="292.86"/>
  <ellipse class="fil0 str4" transform="matrix(0.974263 -0.225414 0.225414 0.974263 6843.14 10519)" rx="851.97" ry="292.86"/>
  <ellipse class="fil0 str4" transform="matrix(0.82045 -0.571718 0.571718 0.82045 10661.6 10533)" rx="851.97" ry="292.86"/>
  <circle class="fil0 str4" cx="14085.09" cy="918.34" r="714.07"/>
  <circle class="fil0 str5" cx="14085.09" cy="918.34" r="908.28"/>
  <line class="fil0 str5" x1="13763.39" y1="66.89" x2="7509.73" y2= "1960.55" />
 </g>
</svg>
