<?xml version="1.0" encoding="UTF-8"?>
<!DOCTYPE svg PUBLIC "-//W3C//DTD SVG 1.1//EN" "http://www.w3.org/Graphics/SVG/1.1/DTD/svg11.dtd">
<!-- Creator: CorelDRAW 2020 (64-Bit Evaluation Version) -->
<svg xmlns="http://www.w3.org/2000/svg" xml:space="preserve" width="173.756mm" height="64.2944mm" version="1.1" style="shape-rendering:geometricPrecision; text-rendering:geometricPrecision; image-rendering:optimizeQuality; fill-rule:evenodd; clip-rule:evenodd"
viewBox="0 0 21932.05 8115.44"
 xmlns:xlink="http://www.w3.org/1999/xlink"
 xmlns:xodm="http://www.corel.com/coreldraw/odm/2003">
 <defs>
  <style type="text/css">
   <![CDATA[
    .str1 {stroke:#2B2A29;stroke-width:63.11;stroke-miterlimit:22.9256}
    .str0 {stroke:#E42C24;stroke-width:25.24;stroke-miterlimit:22.9256}
    .str2 {stroke:#2B2A29;stroke-width:126.22;stroke-miterlimit:22.9256}
    .fil0 {fill:none}
   ]]>
  </style>
 </defs>
 <g id="Layer_x0020_1">
  <metadata id="CorelCorpID_0Corel-Layer"/>
  <g id="_2475887569552">
   <path class="fil0 str0" d="M19886.78 3358.33c-3.02,-6.85 -5.89,-11.94 -8.66,-15.51"/>
   <path class="fil0 str0" d="M20027.61 3649.17c13.96,-3.86 27.1,-15.88 32.77,-34.46 6.29,-20.6 -2.92,-215.01 -4.77,-245.11 -1.07,-17.37 -17.7,-59.92 -33.9,-59.48"/>
   <path class="fil0 str0" d="M19893.88 3659.23c61.48,-14.41 27.55,-169.86 28.49,-231.2 0.8,-52.76 5.58,-95.8 23.54,-98.91 2.2,-0.38 4.27,-0.8 6.21,-1.17"/>
   <path class="fil0 str1" d="M94.92 5178.38c-148.48,-571.18 -24.69,-953.59 249.91,-2297.98 685.27,-3354.95 977.46,-2952.18 2174.46,-2661.79 1165.43,282.73 1843.46,281.63 3157.03,357.88 1313.57,76.25 2435.69,85.63 3860.62,77.32 1424.92,-8.31 3152.64,-34.29 4466.24,-55.99 1313.6,-21.7 2453.56,-226.15 3228.31,-105.6 774.74,120.56 1184.3,566.12 1522.54,984.83 338.24,418.71 388.48,633.22 645.11,1300.53 256.64,667.3 563.62,839.51 972.86,238.73 409.24,-600.78 377.57,-273.58 609.9,-447.62 232.33,-174.05 612.96,-679.26 668.44,-453.66 55.48,225.6 42.46,479.9 -325.24,585.56 -367.7,105.66 993.45,178.98 445.04,407.47 -548.41,228.49 -502.24,931 -140.6,483.12 361.64,-447.88 66.86,1310.78 -267.42,914.95 -334.28,-395.82 -258.4,-602.51 -516.37,-514.61 -257.96,87.9 -886.74,-871.1 -1228.91,-73.92 -342.17,797.19 -525.56,275.85 -659.33,721.09 -133.77,445.23 -526.64,1020.64 -463.82,1700.79 62.82,680.15 -330.41,1216.41 -1674.87,1388.59 -1344.45,172.18 -2199.88,373.1 -3544.65,354.72 -1344.76,-18.38 -2733.99,-134.76 -4443.89,-166.64 -1709.89,-31.91 -3740.43,20.69 -5209.85,-73.45 -1469.41,-94.14 -2671.59,-67.81 -3138.92,-588.99 -467.33,-521.19 -238.15,-1504.15 -386.62,-2075.34z"/>
   <g>
    <polygon class="fil0 str2" points="1068.98,910.62 17553.52,910.62 17553.52,7215.88 1068.98,7215.88 "/>
   </g>
   <g>
    <path class="fil0 str2" d="M3621.21 2820.9c-686.14,0 -1242.35,556.21 -1242.35,1242.35 0,686.14 556.21,1242.35 1242.35,1242.35 686.14,0 1242.35,-556.21 1242.35,-1242.35 0,-686.14 -556.21,-1242.35 -1242.35,-1242.35z"/>
   </g>
   <g>
    <path class="fil0 str2" d="M7418.02 2835.01c-686.14,0 -1242.35,556.21 -1242.35,1242.35 0,686.14 556.21,1242.35 1242.35,1242.35 686.14,0 1242.35,-556.21 1242.35,-1242.35 0,-686.14 -556.21,-1242.35 -1242.35,-1242.35z"/>
   </g>
   <g>
    <path class="fil0 str2" d="M15001.29 2832.89c-686.14,0 -1242.35,556.21 -1242.35,1242.35 0,686.14 556.21,1242.35 1242.35,1242.35 686.14,0 1242.35,-556.21 1242.35,-1242.35 0,-686.14 -556.21,-1242.35 -1242.35,-1242.35z"/>
   </g>
   <g>
    <path class="fil0 str2" d="M11197.76 2818.8c-686.14,0 -1242.35,556.21 -1242.35,1242.35 0,686.14 556.21,1242.35 1242.35,1242.35 686.14,0 1242.35,-556.21 1242.35,-1242.35 0,-686.14 -556.21,-1242.35 -1242.35,-1242.35z"/>
   </g>
   <path class="fil0 str0" d="M19878.12 3342.82c-27.86,-35.36 -41.46,75.8 -46.65,112.58 -7.25,51.4 -45.18,186.24 40.58,203.62 1.34,0.27 2.65,0.5 3.94,0.68"/>
   <path class="fil0 str0" d="M19875.99 3659.7c6.72,0.97 12.65,0.76 17.9,-0.47"/>
   <path class="fil0 str0" d="M19952.12 3327.95c15.51,-3.02 23.53,-3.55 29.28,38.38 3.71,27.02 1.17,86.21 3.11,133.25 1.35,32.91 -3.31,106.27 -1.65,115.75 5.09,29.18 25.67,39.12 44.75,33.84"/>
   <path class="fil0 str0" d="M20021.7 3310.13c-7.51,0.21 -14.93,9.66 -20.66,35.13"/>
  </g>
 </g>
</svg>
